HIERARCHY
ROOT joint_0
{
	OFFSET 0.000000 0.000000 0.000000
	CHANNELS 6 Xposition Yposition Zposition Zrotation Yrotation Xrotation 
	JOINT joint_1
	{
		OFFSET -0.613770 -1.125488 108.300049
		CHANNELS 3 Zrotation Yrotation Xrotation
		JOINT joint_2
		{
			OFFSET -10.925537 -0.900513 98.259033
			CHANNELS 3 Zrotation Yrotation Xrotation
			JOINT joint_3
			{
				OFFSET -11.287842 0.313599 98.110962
				CHANNELS 3 Zrotation Yrotation Xrotation
				JOINT joint_4
				{
					OFFSET -2.124268 2.484680 136.491943
					CHANNELS 3 Zrotation Yrotation Xrotation
					JOINT joint_5
					{
						OFFSET 16.640869 1.801270 81.862061
						CHANNELS 3 Zrotation Yrotation Xrotation
						End Site
						{
							OFFSET 0.000000 0.000000 0.000000
						}
					}
				}
				JOINT joint_6
				{
					OFFSET 0.447998 -28.248108 77.258057
					CHANNELS 3 Zrotation Yrotation Xrotation
					JOINT joint_7
					{
						OFFSET 7.918701 -130.256348 -24.086060
						CHANNELS 3 Zrotation Yrotation Xrotation
						JOINT joint_8
						{
							OFFSET 62.431885 -29.384277 -258.572021
							CHANNELS 3 Zrotation Yrotation Xrotation
							JOINT joint_9
							{
								OFFSET 53.743164 -21.907532 -238.024963
								CHANNELS 3 Zrotation Yrotation Xrotation
								End Site
								{
									OFFSET 0.000000 0.000000 0.000000
								}
							}
						}
					}
				}
				JOINT joint_10
				{
					OFFSET -2.846924 31.052063 76.130981
					CHANNELS 3 Zrotation Yrotation Xrotation
					JOINT joint_11
					{
						OFFSET 9.073730 131.055603 -18.752930
						CHANNELS 3 Zrotation Yrotation Xrotation
						JOINT joint_12
						{
							OFFSET 52.981201 29.883301 -260.613037
							CHANNELS 3 Zrotation Yrotation Xrotation
							JOINT joint_13
							{
								OFFSET 62.237793 15.935547 -236.423035
								CHANNELS 3 Zrotation Yrotation Xrotation
								End Site
								{
									OFFSET 0.000000 0.000000 0.000000
								}
							}
						}
					}
				}
			}
		}
	}
	JOINT joint_14
	{
		OFFSET 22.046143 -72.816772 -98.122925
		CHANNELS 3 Zrotation Yrotation Xrotation
		JOINT joint_15
		{
			OFFSET -23.673828 -54.692932 -469.927032
			CHANNELS 3 Zrotation Yrotation Xrotation
			JOINT joint_16
			{
				OFFSET -34.875244 -46.505249 -395.890999
				CHANNELS 3 Zrotation Yrotation Xrotation
				JOINT joint_17
				{
					OFFSET 168.486328 14.224182 -74.182999
					CHANNELS 3 Zrotation Yrotation Xrotation
					End Site
					{
						OFFSET 0.000000 0.000000 0.000000
					}
				}
			}
		}
	}
	JOINT joint_18
	{
		OFFSET -1.731934 82.408569 -92.846924
		CHANNELS 3 Zrotation Yrotation Xrotation
		JOINT joint_19
		{
			OFFSET -6.908936 32.203369 -472.535034
			CHANNELS 3 Zrotation Yrotation Xrotation
			JOINT joint_20
			{
				OFFSET -13.963135 23.196533 -399.207993
				CHANNELS 3 Zrotation Yrotation Xrotation
				JOINT joint_21
				{
					OFFSET 168.417725 19.834229 -73.041004
					CHANNELS 3 Zrotation Yrotation Xrotation
					End Site
					{
						OFFSET 0.000000 0.000000 0.000000
					}
				}
			}
		}
	}
}
MOTION
Frames: 6
Frame Time: 0.016667
-2952.934082 1022.379150 1059.578979 -2.906230 -0.221595 -1.239729 0.326965 0.979567 3.237613 -0.100147 -0.256150 -0.673116 0.035241 0.217785 0.494539 0.178280 2.090626 -1.062234 0.000000 0.000000 0.000000 1.640124 2.890723 0.207667 -0.590129 3.239690 -0.774261 0.867684 -2.516697 2.787615 0.000000 0.000000 0.000000 2.001730 0.972506 -3.101530 -0.335511 0.563927 -1.949647 0.545637 2.055731 1.537019 0.000000 0.000000 0.000000 0.808681 -4.385206 5.704576 0.485473 1.247776 -0.138972 0.217736 3.601993 -0.211884 0.000000 0.000000 0.000000 0.700619 -2.640407 2.161766 1.061740 1.775704 -0.553514 0.955562 0.485511 0.355996 0.000000 0.000000 0.000000 
-2953.013428 1022.093506 1059.503052 -2.931186 -0.279555 -1.216166 0.330456 1.000982 3.221432 -0.094824 -0.253767 -0.668621 0.039457 0.221009 0.489411 0.179465 2.088571 -1.067770 0.000000 0.000000 0.000000 1.636979 2.911621 0.194342 -0.592981 3.261060 -0.777455 0.868974 -2.531694 2.786814 0.000000 0.000000 0.000000 1.984596 0.978622 -3.119368 -0.333472 0.570856 -1.939677 0.545168 2.067587 1.531946 0.000000 0.000000 0.000000 0.812934 -4.317815 5.698893 0.499734 1.223590 -0.140282 0.225582 3.631021 -0.210954 0.000000 0.000000 0.000000 0.710857 -2.585909 2.166093 1.069560 1.792303 -0.576297 0.961288 0.482177 0.358855 0.000000 0.000000 0.000000 
-2953.060303 1021.812622 1059.410034 -2.958327 -0.343330 -1.187085 0.331523 1.027633 3.196589 -0.090915 -0.252834 -0.661681 0.041834 0.226937 0.483394 0.180836 2.087706 -1.074222 0.000000 0.000000 0.000000 1.632153 2.930348 0.184277 -0.596034 3.279661 -0.782718 0.871040 -2.547313 2.788973 0.000000 0.000000 0.000000 1.966323 0.983931 -3.135603 -0.331140 0.577262 -1.929284 0.545650 2.079231 1.530448 0.000000 0.000000 0.000000 0.817850 -4.240240 5.686750 0.515812 1.195699 -0.141283 0.234873 3.659204 -0.209320 0.000000 0.000000 0.000000 0.722775 -2.521569 2.164668 1.078100 1.806768 -0.600451 0.967670 0.476862 0.362233 0.000000 0.000000 0.000000 
-2953.010742 1021.531799 1059.288940 -3.003015 -0.411202 -1.151089 0.331716 1.073918 3.164578 -0.088954 -0.292085 -0.662826 0.043314 0.269780 0.482389 0.179005 2.125591 -1.067786 0.000000 0.000000 0.000000 1.598199 2.937982 0.188098 -0.598928 3.280357 -0.797365 0.873894 -2.551722 2.798092 0.000000 0.000000 0.000000 1.962732 0.979336 -3.151334 -0.331049 0.571540 -1.921017 0.551432 2.118847 1.541691 0.000000 0.000000 0.000000 0.828594 -4.151948 5.667301 0.538634 1.165074 -0.142523 0.250892 3.682176 -0.204304 0.000000 0.000000 0.000000 0.741539 -2.443665 2.159072 1.092393 1.820571 -0.630111 0.979059 0.463553 0.368718 0.000000 0.000000 0.000000 
-2952.816162 1021.245056 1059.160034 -2.947366 -0.259435 -1.100552 0.281340 0.905568 3.116638 -0.133791 -0.392014 -0.679669 0.000413 0.342956 0.492431 0.169350 2.280635 -1.031541 0.000000 0.000000 0.000000 1.350345 2.955961 0.191077 -0.589758 3.251375 -0.785424 0.883579 -2.550474 2.834151 0.000000 0.000000 0.000000 2.021098 0.996481 -3.171904 -0.329534 0.578451 -1.910264 0.560178 2.176236 1.559577 0.000000 0.000000 0.000000 0.822702 -4.273050 5.626046 0.525635 1.099683 -0.147530 0.224123 3.742427 -0.221080 0.000000 0.000000 0.000000 0.715846 -2.602550 2.141025 1.078110 1.812024 -0.677990 0.966671 0.509676 0.357947 0.000000 0.000000 0.000000 
-2952.525146 1020.957275 1059.001953 -2.909674 -0.112231 -1.042583 0.230531 0.757476 3.060086 -0.179807 -0.531819 -0.702753 -0.042948 0.452344 0.507173 0.157330 2.473633 -0.985459 0.000000 0.000000 0.000000 1.071277 2.962860 0.205987 -0.580148 3.204262 -0.781840 0.894310 -2.537330 2.878211 0.000000 0.000000 0.000000 2.093932 1.003810 -3.191986 -0.330230 0.573360 -1.901752 0.574066 2.260750 1.589746 0.000000 0.000000 0.000000 0.823035 -4.383124 5.577075 0.519765 1.031818 -0.153144 0.204502 3.796888 -0.234240 0.000000 0.000000 0.000000 0.697397 -2.747324 2.118311 1.069910 1.802610 -0.731256 0.959619 0.547663 0.350443 0.000000 0.000000 0.000000 
